<svg width="111" height="116" viewBox="0 0 111 116" fill="none" xmlns="http://www.w3.org/2000/svg">
<path fill-rule="evenodd" clip-rule="evenodd" d="M32.0837 28.2527C32.4114 27.7766 32.7753 27.1938 33.2394 26.408C33.4088 26.121 33.8708 25.3246 34.215 24.7311L34.2156 24.7301L34.2173 24.7271C34.4002 24.4117 34.5495 24.1543 34.6033 24.0623C38.4374 17.5082 41.2244 14.5 46.25 14.5H69.375V24.1667H46.25C45.8489 24.1667 44.5873 25.5283 42.4954 29.1043C42.4523 29.1781 42.3237 29.3998 42.1595 29.6829C41.8124 30.2815 41.306 31.1547 41.111 31.4848C40.5424 32.4477 40.0698 33.2044 39.5928 33.8974C37.5197 36.9093 35.4476 38.6667 32.375 38.6667H18.5C15.9457 38.6667 13.875 40.8306 13.875 43.5V87C13.875 89.6694 15.9457 91.8333 18.5 91.8333H92.5C95.0543 91.8333 97.125 89.6694 97.125 87V58H106.375V87C106.375 95.0081 100.163 101.5 92.5 101.5H18.5C10.837 101.5 4.625 95.0081 4.625 87V43.5C4.625 35.4919 10.837 29 18.5 29H31.5249C31.6789 28.816 31.8676 28.5666 32.0837 28.2527ZM78.625 38.6667V29H87.875V19.3333H97.125V29H106.375V38.6667H97.125V48.3333H87.875V38.6667H78.625ZM55.5 87C42.7284 87 32.375 76.1802 32.375 62.8333C32.375 49.4865 42.7284 38.6667 55.5 38.6667C68.2716 38.6667 78.625 49.4865 78.625 62.8333C78.625 76.1802 68.2716 87 55.5 87ZM55.5 77.3333C63.163 77.3333 69.375 70.8415 69.375 62.8333C69.375 54.8252 63.163 48.3333 55.5 48.3333C47.837 48.3333 41.625 54.8252 41.625 62.8333C41.625 70.8415 47.837 77.3333 55.5 77.3333Z" fill="#A6C8C6"/>
</svg>
