<svg width="40" height="36" viewBox="0 0 40 36" fill="none" xmlns="http://www.w3.org/2000/svg">
<path fill-rule="evenodd" clip-rule="evenodd" d="M21.6427 1.24925C23.6176 0.310061 25.3443 -3.16779e-06 27.9708 3.2635e-05C34.8599 0.0277523 40 5.71851 40 12.9562C40 18.4346 36.9087 23.6383 31.2206 28.6089C28.2749 31.1831 24.5226 33.7245 21.8173 35.0857L20 36L18.1827 35.0857C15.4774 33.7245 11.7251 31.1831 8.77937 28.6089C3.09134 23.6383 0 18.4346 0 12.9562C0 5.64575 5.09625 0 12.0455 0C14.5799 0 16.3922 0.33883 18.4027 1.305C18.9539 1.56989 19.4799 1.87375 19.9788 2.21603C20.5044 1.84901 21.0597 1.52652 21.6427 1.24925Z" fill="#AF70BF"/>
</svg>
