<svg width="42" height="42" viewBox="0 0 42 42" fill="none" xmlns="http://www.w3.org/2000/svg">
<path fill-rule="evenodd" clip-rule="evenodd" d="M41.1663 20.9999C41.1663 9.86218 32.1374 0.833252 20.9997 0.833252C9.86193 0.833252 0.833008 9.86218 0.833008 20.9999C0.833008 32.1377 9.86193 41.1666 20.9997 41.1666C32.1374 41.1666 41.1663 32.1377 41.1663 20.9999ZM5.67726 14.8665C7.35178 10.687 10.6868 7.35203 14.8663 5.6775C13.8857 7.57051 13.1164 9.93069 12.598 12.5982C9.93044 13.1167 7.57027 13.8859 5.67726 14.8665ZM27.1331 5.6775C28.1137 7.57051 28.8829 9.93069 29.4014 12.5982C32.0689 13.1167 34.4291 13.8859 36.3221 14.8665C34.6476 10.687 31.3126 7.35203 27.1331 5.6775ZM4.49967 20.9999C4.49967 19.3513 7.48559 17.5624 12.0429 16.4866C11.9046 17.9397 11.833 19.4508 11.833 20.9999C11.833 22.5491 11.9046 24.0601 12.0429 25.5132C7.48559 24.4374 4.49967 22.6485 4.49967 20.9999ZM30.1663 20.9999C30.1663 22.5491 30.0948 24.0601 29.9565 25.5132C34.5138 24.4374 37.4997 22.6485 37.4997 20.9999C37.4997 19.3513 34.5138 17.5624 29.9565 16.4866C30.0948 17.9397 30.1663 19.4508 30.1663 20.9999ZM5.67726 27.1333C7.57027 28.1139 9.93044 28.8831 12.598 29.4016C13.1164 32.0692 13.8857 34.4293 14.8663 36.3223C10.6868 34.6478 7.35178 31.3128 5.67726 27.1333ZM29.4014 29.4016C28.8829 32.0691 28.1137 34.4293 27.1331 36.3223C31.3126 34.6478 34.6476 31.3128 36.3221 27.1333C34.4291 28.1139 32.0689 28.8831 29.4014 29.4016ZM15.4997 20.9999C15.4997 19.1844 15.6135 17.4427 15.8161 15.8164C17.4424 15.6138 19.1841 15.4999 20.9995 15.4999C22.8151 15.4999 24.5568 15.6138 26.1832 15.8164C26.3858 17.4427 26.4997 19.1845 26.4997 20.9999C26.4997 22.8154 26.3858 24.5571 26.1832 26.1834C24.5568 26.386 22.8151 26.4999 20.9995 26.4999C19.1841 26.4999 17.4424 26.3861 15.8161 26.1835C15.6135 24.5571 15.4997 22.8154 15.4997 20.9999ZM16.4864 29.9567C17.5622 34.514 19.3511 37.4999 20.9997 37.4999C22.6483 37.4999 24.4372 34.514 25.513 29.9567C24.0598 30.095 22.5487 30.1666 20.9995 30.1666C19.4504 30.1666 17.9395 30.095 16.4864 29.9567ZM20.9997 4.49992C19.3511 4.49992 17.5622 7.48583 16.4864 12.0431C17.9395 11.9048 19.4504 11.8333 20.9995 11.8333C22.5487 11.8333 24.0598 11.9048 25.513 12.0432C24.4372 7.48584 22.6483 4.49992 20.9997 4.49992Z" fill="#63E3FF"/>
</svg>
