<svg width="44" height="44" viewBox="0 0 44 44" fill="none" xmlns="http://www.w3.org/2000/svg">
<path d="M42.9 30.25H41.8V20.9602C41.8 19.8687 41.4494 18.8203 40.8306 18.0469L33.9625 9.46172C33.3438 8.68828 32.505 8.25 31.6319 8.25H28.6V4.125C28.6 1.84766 27.1219 0 25.3 0H7.7C5.87813 0 4.4 1.84766 4.4 4.125V8.25H0.55C0.2475 8.25 0 8.55937 0 8.9375V10.3125C0 10.6906 0.2475 11 0.55 11H19.25C19.5525 11 19.8 11.3094 19.8 11.6875V13.0625C19.8 13.4406 19.5525 13.75 19.25 13.75H2.75C2.4475 13.75 2.2 14.0594 2.2 14.4375V15.8125C2.2 16.1906 2.4475 16.5 2.75 16.5H17.05C17.3525 16.5 17.6 16.8094 17.6 17.1875V18.5625C17.6 18.9406 17.3525 19.25 17.05 19.25H0.55C0.2475 19.25 0 19.5594 0 19.9375V21.3125C0 21.6906 0.2475 22 0.55 22H14.85C15.1525 22 15.4 22.3094 15.4 22.6875V24.0625C15.4 24.4406 15.1525 24.75 14.85 24.75H4.4V35.75C4.4 40.3047 7.35625 44 11 44C14.6438 44 17.6 40.3047 17.6 35.75H26.4C26.4 40.3047 29.3563 44 33 44C36.6437 44 39.6 40.3047 39.6 35.75H42.9C43.505 35.75 44 35.1312 44 34.375V31.625C44 30.8687 43.505 30.25 42.9 30.25ZM11 39.875C9.17813 39.875 7.7 38.0273 7.7 35.75C7.7 33.4727 9.17813 31.625 11 31.625C12.8219 31.625 14.3 33.4727 14.3 35.75C14.3 38.0273 12.8219 39.875 11 39.875ZM33 39.875C31.1781 39.875 29.7 38.0273 29.7 35.75C29.7 33.4727 31.1781 31.625 33 31.625C34.8219 31.625 36.3 33.4727 36.3 35.75C36.3 38.0273 34.8219 39.875 33 39.875ZM38.5 22H28.6V12.375H31.6319L38.5 20.9602V22Z" fill="white"/>
</svg>
