<svg width="44" height="44" viewBox="0 0 44 44" fill="none" xmlns="http://www.w3.org/2000/svg">
<path d="M22 0.6875C9.84677 0.6875 0 10.2266 0 22C0 33.7734 9.84677 43.3125 22 43.3125C34.1532 43.3125 44 33.7734 44 22C44 10.2266 34.1532 0.6875 22 0.6875ZM22 39.1875C12.2153 39.1875 4.25806 31.4789 4.25806 22C4.25806 12.5211 12.2153 4.8125 22 4.8125C31.7847 4.8125 39.7419 12.5211 39.7419 22C39.7419 31.4789 31.7847 39.1875 22 39.1875ZM14.9032 20.625C16.4734 20.625 17.7419 19.3961 17.7419 17.875C17.7419 16.3539 16.4734 15.125 14.9032 15.125C13.3331 15.125 12.0645 16.3539 12.0645 17.875C12.0645 19.3961 13.3331 20.625 14.9032 20.625ZM29.0968 20.625C30.6669 20.625 31.9355 19.3961 31.9355 17.875C31.9355 16.3539 30.6669 15.125 29.0968 15.125C27.5266 15.125 26.2581 16.3539 26.2581 17.875C26.2581 19.3961 27.5266 20.625 29.0968 20.625ZM29.4516 26.8641C27.6065 29.0125 24.8831 30.25 22 30.25C19.1169 30.25 16.3935 29.0211 14.5484 26.8641C13.7944 25.9875 12.446 25.8758 11.55 26.5977C10.6452 27.3281 10.5298 28.6258 11.275 29.5023C13.9363 32.5961 17.8484 34.3664 22 34.3664C26.1516 34.3664 30.0637 32.5961 32.725 29.5023C33.479 28.6258 33.3548 27.3281 32.45 26.5977C31.554 25.8758 30.2056 25.9875 29.4516 26.8641Z" fill="white"/>
</svg>
