<svg width="30" height="38" viewBox="0 0 30 38" fill="none" xmlns="http://www.w3.org/2000/svg">
<path fill-rule="evenodd" clip-rule="evenodd" d="M13.2921 11.8842C14.0693 10.5752 14.3479 9.1956 13.469 7.97785C11.4966 4.52824 10.17 2.39501 9.33799 1.3677C7.75615 -0.585352 5.154 -0.321171 3.78401 1.36603C3.04818 2.27224 2.79907 2.58344 2.04352 3.54261C-2.16495 8.8055 0.401594 19.9311 7.22441 28.4671C14.0457 37.0012 22.9462 40.2108 27.1635 34.9368C27.8607 34.0967 28.451 33.3585 28.9165 32.7435C30.2591 30.9699 30.4629 27.861 28.9077 25.8413C28.1104 24.8058 26.4828 23.2278 23.6067 20.6565C22.7259 19.672 21.6814 19.8854 20.7239 20.6706C20.2633 21.0482 19.9281 21.4303 19.2951 22.2222L18.1458 23.6595C17.9944 23.8489 15.9388 22.5622 13.9434 20.0657C11.9469 17.5679 10.9182 14.9985 11.0688 14.8102C11.3796 14.4219 11.7629 13.9425 12.219 13.3719C12.4198 13.1207 12.5158 12.999 12.6389 12.8373C12.8955 12.5003 13.1078 12.1945 13.2921 11.8842ZM20.2659 26.3109L21.4155 24.8733C21.7639 24.4375 21.9896 24.1695 22.1733 23.9848C24.6928 26.2462 26.1519 27.6681 26.7479 28.4422C27.1058 28.9069 27.0502 29.7548 26.7391 30.1658C26.3086 30.7345 25.7493 31.4339 25.0629 32.2613C22.3359 35.6712 15.1512 33.0804 9.34502 25.8163C3.53705 18.5499 1.46515 9.56862 4.17162 6.18401C4.92412 5.22878 5.16253 4.93095 5.88786 4.03767C6.15982 3.70274 6.90061 3.62754 7.23144 4.03601C7.87204 4.82694 9.06034 6.72865 10.8084 9.77211C10.7179 9.91253 10.6049 10.0712 10.4673 10.2519C10.3664 10.3845 10.2823 10.4911 10.0984 10.7211C9.64269 11.2913 9.25967 11.7702 8.94937 12.158C6.99465 14.601 8.65936 18.7588 11.8228 22.7166C14.9841 26.6716 18.3119 28.7546 20.2659 26.3109Z" fill="#63E3FF"/>
</svg>
