<svg width="44" height="44" viewBox="0 0 44 44" fill="none" xmlns="http://www.w3.org/2000/svg">
<path d="M8.9375 19.25H2.0625C0.923398 19.25 0 20.1734 0 21.3125V41.9375C0 43.0766 0.923398 44 2.0625 44H8.9375C10.0766 44 11 43.0766 11 41.9375V21.3125C11 20.1734 10.0766 19.25 8.9375 19.25ZM5.5 40.5625C4.3609 40.5625 3.4375 39.6391 3.4375 38.5C3.4375 37.3609 4.3609 36.4375 5.5 36.4375C6.6391 36.4375 7.5625 37.3609 7.5625 38.5C7.5625 39.6391 6.6391 40.5625 5.5 40.5625ZM33 6.99978C33 10.6449 30.7682 12.6895 30.1403 15.125H38.8821C41.7521 15.125 43.9865 17.5094 43.9999 20.1178C44.0071 21.6593 43.3514 23.3189 42.3294 24.3457L42.3199 24.3551C43.1652 26.3606 43.0278 29.1708 41.52 31.1845C42.266 33.4098 41.5141 36.1434 40.1122 37.6089C40.4815 39.1212 40.305 40.4083 39.5838 41.4445C37.8299 43.9645 33.4826 44 29.8065 44L29.562 43.9999C25.4123 43.9985 22.0162 42.4876 19.2873 41.2735C17.916 40.6635 16.123 39.9083 14.7626 39.8833C14.2006 39.8729 13.75 39.4143 13.75 38.8522V20.4813C13.75 20.2063 13.8602 19.9424 14.0558 19.749C17.4601 16.3851 18.924 12.8236 21.7143 10.0286C22.9865 8.75394 23.4492 6.82859 23.8965 4.96667C24.2786 3.37674 25.078 0 26.8125 0C28.875 0 33 0.6875 33 6.99978Z" fill="white"/>
</svg>
