<svg width="50" height="44" viewBox="0 0 50 44" fill="none" xmlns="http://www.w3.org/2000/svg">
<path fill-rule="evenodd" clip-rule="evenodd" d="M27.0534 1.52686C29.5219 0.378964 31.6803 -3.87175e-06 34.9635 3.98872e-05C43.5748 0.0339195 50 6.98929 50 15.8354C50 22.5312 46.1358 28.8912 39.0258 34.9664C35.3436 38.1126 30.6532 41.2189 27.2716 42.8825L25 44L22.7284 42.8825C19.3468 41.2189 14.6564 38.1126 10.9742 34.9664C3.86418 28.8912 0 22.5312 0 15.8354C0 6.90037 6.37031 0 15.0568 0C18.2248 0 20.4902 0.414125 23.0033 1.595C23.6924 1.91876 24.3499 2.29014 24.9735 2.70848C25.6305 2.2599 26.3246 1.86574 27.0534 1.52686Z" fill="#AF70BF"/>
</svg>
