<svg width="28" height="28" viewBox="0 0 28 28" fill="none" xmlns="http://www.w3.org/2000/svg">
<path fill-rule="evenodd" clip-rule="evenodd" d="M17.2807 20.5883C15.5045 21.782 13.3514 22.4809 11.0309 22.4809C4.94141 22.4809 0.00488281 17.6679 0.00488281 11.7308C0.00488281 5.79369 4.94141 0.980713 11.0309 0.980713C17.1204 0.980713 22.057 5.79369 22.057 11.7308C22.057 13.9932 21.3402 16.0924 20.1159 17.8242L27.484 25.0079L24.6489 27.7721L17.2807 20.5883ZM11.0309 18.5718C14.906 18.5718 18.0474 15.509 18.0474 11.7308C18.0474 7.95268 14.906 4.88988 11.0309 4.88988C7.15572 4.88988 4.0143 7.95268 4.0143 11.7308C4.0143 15.509 7.15572 18.5718 11.0309 18.5718Z" fill="#D5D5D5"/>
</svg>
